<?xml version="1.0" standalone="no"?>
<!DOCTYPE svg PUBLIC "-//W3C//DTD SVG 20010904//EN"
 "http://www.w3.org/TR/2001/REC-SVG-20010904/DTD/svg10.dtd">
<svg version="1.0" xmlns="http://www.w3.org/2000/svg"
 width="700.000000pt" height="700.000000pt" viewBox="0 0 700.000000 700.000000"
 preserveAspectRatio="xMidYMid meet">
<metadata>
Created by potrace 1.11, written by Peter Selinger 2001-2013
</metadata>
<g transform="translate(0.000000,700.000000) scale(0.100000,-0.100000)"
fill="#000000" stroke="none">
<path d="M2868 6880 c-43 -9 -103 -30 -134 -46 -103 -53 -201 -185 -230 -309
-24 -103 -31 -174 -28 -299 2 -77 5 -154 8 -171 3 -16 7 -48 11 -71 8 -58 13
-83 40 -229 13 -71 26 -141 29 -155 2 -14 14 -77 26 -140 12 -63 24 -126 26
-140 2 -14 11 -59 18 -100 8 -41 18 -95 22 -120 4 -25 8 -47 9 -50 10 -44 16
-71 20 -100 3 -19 19 -105 35 -190 16 -85 32 -168 35 -185 11 -60 35 -190 35
-193 0 -1 -44 42 -98 95 -201 201 -436 301 -717 308 -290 6 -548 -98 -755
-305 -93 -93 -159 -186 -210 -297 l-34 -73 -347 0 -347 0 0 -2015 0 -2015
3224 0 3224 0 0 2015 0 2015 -345 0 -345 0 0 23 c-1 85 -10 366 -13 382 -22
123 -70 251 -166 440 -159 317 -189 381 -204 438 -14 53 -14 58 2 70 40 28 49
121 16 171 -29 44 -83 52 -340 51 -242 -1 -260 -5 -296 -49 -37 -44 -30 -146
11 -176 16 -12 16 -17 2 -74 -9 -33 -51 -131 -95 -216 -176 -341 -216 -430
-250 -550 -29 -101 -35 -164 -36 -367 l-1 -143 -256 0 -256 0 -97 91 c-113
108 -193 173 -313 254 -64 44 -89 67 -93 87 -9 39 20 87 62 105 32 13 41 13
72 1 82 -32 393 -244 501 -342 43 -38 49 -26 44 93 -8 214 -44 308 -181 483
-172 219 -403 437 -588 557 -79 51 -94 66 -95 98 -1 61 57 110 117 98 57 -10
294 -162 441 -282 132 -108 122 -105 105 -31 -71 308 -163 618 -214 722 -10
22 -19 44 -19 48 0 14 -92 198 -138 277 -236 402 -554 584 -894 511z m3218
-4782 c0 -962 -3 -1368 -10 -1371 -6 -2 -1167 -3 -2580 -3 l-2570 1 0 1360
c-1 748 0 1365 2 1370 2 8 801 11 2580 10 l2577 0 1 -1367z"/>
<path d="M957 5692 c-28 -3 -28 -4 -22 -55 16 -134 70 -306 131 -415 96 -171
244 -279 454 -330 98 -23 80 -21 235 -27 141 -5 178 0 171 24 -3 9 -8 41 -11
71 -4 30 -9 58 -11 61 -2 3 -6 21 -9 40 -14 82 -95 272 -143 339 -141 192
-358 290 -652 294 -63 1 -128 0 -143 -2z"/>
</g>
</svg>
