<?xml version="1.0" standalone="no"?>
<!DOCTYPE svg PUBLIC "-//W3C//DTD SVG 20010904//EN"
 "http://www.w3.org/TR/2001/REC-SVG-20010904/DTD/svg10.dtd">
<svg version="1.0" xmlns="http://www.w3.org/2000/svg"
 width="700.000000pt" height="700.000000pt" viewBox="0 0 700.000000 700.000000"
 preserveAspectRatio="xMidYMid meet">
<metadata>
Created by potrace 1.11, written by Peter Selinger 2001-2013
</metadata>
<g transform="translate(0.000000,700.000000) scale(0.100000,-0.100000)"
fill="#000000" stroke="none">
<path d="M3389 6905 c-2 -2 -33 -6 -69 -10 -36 -4 -119 -17 -185 -31 -452 -90
-749 -264 -892 -524 -111 -201 -147 -585 -88 -945 11 -72 61 -219 101 -297 56
-112 187 -285 384 -511 68 -78 189 -261 180 -271 -6 -5 -429 -19 -600 -19 -63
-1 -203 3 -310 8 -355 15 -610 11 -750 -10 -175 -27 -295 -72 -351 -130 -23
-24 -46 -50 -50 -57 -10 -17 -37 -124 -44 -171 -18 -127 -17 -124 -53 -238
-51 -165 -151 -386 -228 -507 -19 -29 -34 -55 -34 -58 0 -3 -10 -19 -21 -36
-33 -46 -34 -125 -3 -171 42 -62 70 -71 232 -72 78 -1 145 -5 148 -8 9 -8 7
-1393 -2 -1642 -13 -387 -10 -629 10 -765 9 -58 45 -182 60 -205 36 -54 96
-73 356 -111 204 -29 835 -40 1180 -21 80 5 186 10 235 13 50 2 126 6 170 8
44 3 150 8 235 13 222 10 1871 10 2085 -2 216 -11 535 -12 627 -3 37 4 108 17
159 28 146 32 170 64 195 260 20 154 19 412 -1 715 -9 123 -15 476 -20 1045
l-5 615 231 0 c257 0 298 7 344 55 26 27 29 38 29 93 0 280 -164 788 -349
1082 -38 61 -120 161 -168 206 -94 88 -220 147 -352 165 -78 11 -279 11 -430
1 -178 -12 -238 -15 -480 -22 -121 -3 -274 -8 -340 -10 -66 -2 -207 -7 -314
-10 l-193 -6 7 38 c14 78 65 186 139 297 42 63 82 121 89 128 20 21 180 237
226 304 75 112 135 259 156 384 3 19 7 42 10 50 18 69 21 290 6 395 -50 344
-315 695 -643 853 -162 78 -301 109 -489 110 -69 1 -128 -1 -130 -3z m261
-314 c243 -39 479 -227 591 -469 31 -66 70 -172 64 -172 -2 0 1 -15 6 -32 41
-132 30 -365 -23 -528 -45 -137 -94 -223 -233 -403 -49 -64 -120 -156 -156
-203 -98 -127 -170 -286 -183 -402 -2 -18 -5 -34 -7 -36 -2 -3 -31 -6 -64 -8
l-59 -3 -2 110 c-1 61 -5 304 -9 540 l-7 430 84 85 c101 104 193 216 209 255
46 119 -81 260 -189 208 -16 -8 -50 -38 -75 -66 -58 -66 -136 -148 -163 -170
-19 -16 -22 -15 -76 36 -91 84 -270 166 -357 163 -54 -1 -90 -26 -117 -79 -21
-40 -20 -110 2 -147 21 -35 35 -44 144 -93 56 -25 96 -53 155 -109 l80 -75 1
-79 c1 -44 5 -270 8 -504 4 -234 9 -444 10 -467 1 -25 -3 -43 -8 -44 -6 0 -36
-2 -66 -4 l-55 -3 -28 57 c-48 101 -232 357 -350 486 -10 11 -42 52 -71 90
-180 238 -269 474 -269 707 1 199 38 337 151 567 15 30 52 80 82 110 48 49 69
61 165 98 232 89 468 156 585 165 58 5 161 0 230 -11z m2010 -2529 c105 -35
234 -117 310 -199 100 -108 193 -271 270 -478 38 -103 86 -272 79 -279 -8 -8
-1826 -12 -1889 -4 -123 16 -269 70 -355 131 -133 94 -227 229 -297 427 -15
45 -98 357 -98 372 0 2 12 5 28 5 43 1 454 13 602 18 132 5 276 9 675 21 110
3 201 7 203 8 1 2 94 2 205 2 178 -2 210 -5 267 -24z m-2395 -101 c-3 -31 -7
-72 -10 -91 -2 -19 -6 -55 -9 -80 -14 -127 -19 -162 -37 -244 -11 -50 -31
-119 -46 -155 -67 -173 -232 -244 -558 -243 -1472 6 -1830 10 -1829 18 0 5 22
54 48 109 90 186 142 345 182 548 9 49 23 95 30 102 7 7 39 16 71 20 32 3 72
8 88 10 51 6 220 14 435 21 113 3 234 7 270 9 62 3 408 14 669 20 447 11 656
17 659 20 2 1 12 0 23 -2 18 -5 19 -12 14 -62z m385 -815 c0 -18 96 -151 145
-201 81 -84 177 -136 295 -160 124 -26 402 -25 730 2 132 10 909 9 913 -2 3
-5 5 -127 6 -270 3 -447 10 -869 15 -892 3 -12 8 -62 11 -110 4 -48 8 -99 10
-113 2 -14 6 -51 9 -83 4 -31 9 -83 12 -115 22 -207 5 -472 -36 -556 -57 -118
-197 -194 -395 -213 -93 -10 -311 -9 -460 1 -66 5 -142 10 -170 12 -27 1 -289
3 -582 3 l-532 1 0 1371 c0 1181 2 1369 14 1353 8 -11 15 -23 15 -28z m-330
-1406 l0 -1290 -527 -1 c-291 0 -546 -2 -568 -3 -266 -20 -552 -25 -680 -14
-91 9 -210 40 -275 73 -124 63 -194 184 -217 375 -10 77 -9 387 2 560 5 80 9
430 9 778 1 415 4 632 11 633 44 2 953 -3 1000 -6 33 -3 94 -7 135 -9 41 -3
125 -9 185 -13 204 -14 463 -9 595 13 110 18 229 80 290 152 19 22 36 41 37
41 1 1 3 -579 3 -1289z"/>
</g>
</svg>
