<svg xmlns="http://www.w3.org/2000/svg" width="60" height="60"><path fill="none" d="M-1 -1H61V61H-1z"/><g><path d="m10.48157,16.884c2.355,1.942 6.024,1.381 6.024,1.381s-0.151,-3.706 -2.508,-5.648c-2.354,-1.941 -6.024,-1.384 -6.024,-1.384s0.152,3.71 2.508,5.651z"/><path d="m57.70288,24.76296l-5.948,0c0,-0.763 0,-1.529 0,-2.294c0,-1.695 -0.638,-3.277 -1.39301,-4.764c-0.422,-0.832 -0.89,-1.64 -1.303,-2.478c-0.293,-0.598 -0.572,-1.237 -0.688,-1.901c0.389,-0.249 0.531,-0.78 0.453,-1.24c-0.092,-0.529 -0.594,-0.806 -1.084,-0.806c-0.613,0 -1.229,0 -1.842,0c-0.6,0 -1.196,0 -1.797,0c-0.49,0 -0.951,0.211 -1.102,0.726c-0.139,0.474 0.015,1.055 0.43,1.32c-0.191,1.161 -0.857,2.252 -1.404,3.267c-0.718,1.335 -1.438,2.695 -1.784,4.179c-0.286,1.231 -0.196,2.547 -0.196,3.803c0,0.064 0,0.127 0,0.189l-4.443,0c-1.219,-1.281 -2.579,-2.46 -3.94301,-3.246c-0.308,-0.179 -0.402,-0.439 -0.361,-0.689c0.088,-0.509 0.726,-0.975 1.33801,-0.625c1.596,0.922 3.135,1.967 4.486,3.184c0,0.001 0.16,-1.135 -0.049,-2.259c-0.225,-1.198 -0.761,-2.077 -0.761,-2.077c-1.609,-2.193 -3.915,-4.642 -6.22901,-5.97c-0.919,-0.528 0.061,-1.84 0.979,-1.312c1.593,0.916 3.12901,1.962 4.47901,3.175c-1.97,-9.833 -5.73001,-14.6 -10.48701,-14.023c-2.246,0.271 -4.796,1.891 -3.533,8.648l2.428,13.014c-1.632,-2.199 -4.241,-3.629 -7.189,-3.629c-3.837,0 -7.102,2.416 -8.377,5.808l-5.969,0l0,34.556l55.28901,0l0,-34.556zm-5.52901,29.027l-44.231,0l0,-23.497l44.231,0l0,23.497z"/></g></svg>
